# xmcd CD database file
#
# Track frame offsets:
#	150
#	46426
#	82855
#	118390
#	148851
#	174099
#	179759
#	212342
#
# Disc length: 3357 seconds
#
# Revision: 0
# Processed by: cddbd v1.5.2PL0 Copyright (c) Steve Scherf et al.
# Submitted via: CDex 1.51
#
DISCID=6d0d1b08
DTITLE=Galliano Prosperi - Così è se...
DYEAR=1900
DGENRE=Jazz
TTITLE0=Tre in Quattro
TTITLE1=Essere o non Essere
TTITLE2=Tenco
TTITLE3=Vertigo
TTITLE4=La Terrazza
TTITLE5=Preludio Sonatina
TTITLE6=Sonatina Mediterranea
TTITLE7=Verso Est
EXTD=
EXTT0=
EXTT1=
EXTT2=
EXTT3=
EXTT4=
EXTT5=
EXTT6=
EXTT7=
PLAYORDER=
